<svg viewBox="0 0 32 32" fill="none" xmlns="http://www.w3.org/2000/svg">
<path d="M14.904 26.092C15.0263 26.2697 15.19 26.4149 15.3809 26.5153C15.5718 26.6156 15.7843 26.6681 16 26.6681C16.2157 26.6681 16.4281 26.6156 16.6191 26.5153C16.81 26.4149 16.9737 26.2697 17.096 26.092L29.096 8.75867C29.2349 8.55875 29.3163 8.32458 29.3315 8.08161C29.3466 7.83865 29.2949 7.59617 29.182 7.38053C29.069 7.16489 28.8991 6.98434 28.6907 6.85848C28.4823 6.73263 28.2434 6.66629 28 6.66667H3.99998C3.7571 6.66768 3.51909 6.73487 3.31155 6.86102C3.10401 6.98718 2.93478 7.16752 2.82207 7.38266C2.70936 7.5978 2.65742 7.8396 2.67186 8.08205C2.68629 8.3245 2.76654 8.55842 2.90398 8.75867L14.904 26.092Z" fill="white"/>
</svg>
