<svg viewBox="0 0 25 25" fill="none" xmlns="http://www.w3.org/2000/svg">
<path d="M21.4659 4.96695L20.144 6.00054C18.3416 3.69663 15.5385 2.21773 12.3909 2.21773C6.9557 2.21773 2.55648 6.61226 2.54945 12.0498C2.54242 17.4919 6.95101 21.9052 12.3909 21.9052C16.6401 21.9052 20.2612 19.2099 21.6393 15.4341C21.6744 15.3357 21.6229 15.2255 21.5244 15.1927L20.1955 14.7357C20.1492 14.7198 20.0985 14.7227 20.0543 14.7437C20.01 14.7647 19.9758 14.8022 19.9588 14.8482C19.9166 14.9654 19.8698 15.0826 19.8205 15.1974C19.4151 16.1584 18.8338 17.0209 18.0932 17.7615C17.3585 18.4975 16.4887 19.0848 15.5315 19.4912C14.5401 19.9107 13.483 20.124 12.3955 20.124C11.3057 20.124 10.251 19.9107 9.2596 19.4912C8.30142 19.0865 7.43129 18.499 6.69788 17.7615C5.96124 17.0269 5.37456 16.1561 4.97054 15.1974C4.55101 14.2037 4.33773 13.149 4.33773 12.0591C4.33773 10.9693 4.55101 9.9146 4.97054 8.92085C5.37601 7.95992 5.95726 7.09742 6.69788 6.35679C7.43851 5.61617 8.30101 5.03492 9.2596 4.6271C10.251 4.20757 11.308 3.99429 12.3955 3.99429C13.4854 3.99429 14.5401 4.20757 15.5315 4.6271C16.4897 5.03174 17.3598 5.61926 18.0932 6.35679C18.3252 6.58882 18.5432 6.83492 18.7448 7.09273L17.3338 8.19429C17.3059 8.21589 17.2847 8.24492 17.2725 8.27806C17.2604 8.3112 17.2578 8.34709 17.2652 8.38161C17.2725 8.41614 17.2894 8.44788 17.314 8.47321C17.3386 8.49853 17.3698 8.5164 17.4041 8.52476L21.5198 9.53257C21.6369 9.5607 21.7518 9.47163 21.7518 9.3521L21.7705 5.11226C21.7682 4.95757 21.5877 4.87085 21.4659 4.96695V4.96695Z" fill="white"/>
</svg>
